<?xml version="1.0" standalone="no"?> <!DOCTYPE svg PUBLIC "-//W3C//DTD SVG 20010904//EN" "http://www.w3.org/TR/2001/REC-SVG-20010904/DTD/svg10.dtd"> <svg version="1.0" xmlns="http://www.w3.org/2000/svg" width="437.000000pt" height="316.000000pt" viewBox="0 0 437.000000 316.000000" preserveAspectRatio="xMidYMid meet"> <g transform="translate(0.000000,316.000000) scale(0.100000,-0.100000)" fill="#0d6370" stroke="none"> <path d="M2155 2406 c-35 -35 -49 -98 -105 -483 -37 -255 -43 -260 -80 -73 -37 188 -73 260 -130 260 -40 0 -67 -25 -89 -86 -49 -130 -43 -126 -226 -133 l-140 -6 0 -30 0 -30 165 0 c194 0 210 6 255 101 33 69 38 64 64 -61 57 -266 101 -338 182 -295 47 25 84 179 139 575 33 239 37 236 90 -64 52 -299 98 -392 174 -351 27 14 72 96 82 150 8 37 27 39 42 5 25 -53 63 -65 219 -65 l143 0 6 24 c10 42 -1 46 -121 46 -132 0 -154 7 -185 62 -61 109 -141 101 -171 -16 -10 -40 -33 -76 -43 -65 -2 2 -18 87 -36 189 -54 307 -83 370 -170 370 -30 0 -47 -6 -65 -24z"/> <path d="M1155 2257 c-147 -153 -134 -702 19 -802 33 -22 161 -30 211 -13 72 24 137 145 152 281 l6 57 -82 0 c-97 0 -121 15 -121 79 0 57 24 71 124 71 l79 0 -7 71 c-11 126 -61 240 -123 280 -22 15 -47 19 -122 19 l-94 0 -42 -43z m161 -26 c-105 -155 -104 -583 0 -743 30 -47 18 -49 -23 -5 -73 76 -97 172 -98 382 0 194 28 306 95 376 51 54 65 49 26 -10z"/> <path d="M2913 2280 c-58 -35 -102 -126 -123 -252 -17 -105 -22 -98 75 -98 96 0 125 -16 125 -69 0 -61 -31 -81 -126 -81 -96 0 -91 8 -69 -104 17 -92 68 -192 109 -217 67 -41 204 -36 257 8 160 135 140 746 -27 822 -43 19 -184 14 -221 -9z m123 -42 c31 -33 51 -76 73 -155 10 -37 24 -67 30 -66 6 2 11 -4 11 -13 0 -8 -4 -12 -10 -9 -6 4 -10 -43 -10 -133 0 -202 -42 -349 -114 -396 -37 -24 -40 -20 -13 17 78 105 110 371 68 572 -18 86 -58 186 -81 200 -5 3 -10 11 -10 16 0 14 30 -4 56 -33z"/> <path d="M982 2205 c-83 -70 -124 -299 -86 -483 29 -145 71 -202 154 -210 56 -5 59 -1 30 35 -91 116 -93 478 -4 630 31 54 31 53 -20 53 -33 0 -52 -7 -74 -25z"/> <path d="M3222 2223 c2 -5 15 -30 29 -58 85 -162 89 -411 10 -582 -17 -36 -31 -67 -31 -69 0 -8 60 -4 86 6 147 56 167 557 28 680 -33 28 -133 47 -122 23z"/> <path d="M819 2110 c-70 -41 -91 -313 -34 -426 29 -57 32 -59 72 -62 l42 -3 -27 58 c-41 88 -41 312 1 391 l27 52 -32 0 c-18 0 -40 -5 -49 -10z"/> <path d="M3448 2063 c41 -88 41 -312 0 -391 l-28 -53 42 3 c78 6 114 102 106 283 -7 145 -44 215 -113 215 l-34 0 27 -57z"/> <path d="M646 1914 c-8 -20 -8 -88 0 -108 4 -11 19 -16 50 -16 l43 0 -11 31 c-6 16 -8 48 -4 70 l6 39 -39 0 c-26 0 -41 -5 -45 -16z"/> <path d="M3596 1891 c3 -22 1 -54 -4 -71 l-11 -31 47 3 47 3 0 65 0 65 -43 3 -42 3 6 -40z"/> </g> </svg>