<svg version="1.1" id="Layer_1" xmlns="http://www.w3.org/2000/svg" xmlns:xlink="http://www.w3.org/1999/xlink" x="0px" y="0px"
	 width="100%" viewBox="0 0 437 316" enable-background="new 0 0 437 316" xml:space="preserve">
<path fill="#FDFEFD" opacity="1.000000" stroke="none" 
	d="
M243.000000,317.000000 
	C162.000015,317.000000 81.500031,317.000000 1.000032,317.000000 
	C1.000022,211.666702 1.000022,106.333397 1.000011,1.000075 
	C146.666611,1.000050 292.333221,1.000050 437.999878,1.000025 
	C437.999908,106.333252 437.999908,211.666504 437.999939,316.999878 
	C373.166656,317.000000 308.333344,317.000000 243.000000,317.000000 
M359.697388,123.491928 
	C359.161163,123.317596 358.624939,123.143272 357.923401,122.220139 
	C357.716248,121.490364 357.509125,120.760582 357.467285,119.360458 
	C356.774658,117.217972 356.082031,115.075485 355.207642,112.218468 
	C352.808563,107.035660 349.456909,103.461266 342.394012,104.991608 
	C341.725342,104.983055 341.056671,104.974495 340.260803,104.283913 
	C339.986938,103.668823 339.713104,103.053734 338.932556,101.971184 
	C338.609558,101.265404 338.303619,100.551231 337.960876,99.855186 
	C335.094391,94.033760 325.990906,91.866005 321.411041,95.888092 
	C320.959076,95.221901 320.507080,94.555717 319.879028,93.235489 
	C316.531158,91.122345 313.421448,88.156685 309.768341,87.136337 
	C306.130493,86.120255 301.947296,87.056633 297.438019,87.026680 
	C296.906982,87.202309 296.375977,87.377937 295.105621,87.593819 
	C292.827606,89.169174 290.011230,90.317528 288.364471,92.393600 
	C281.134796,101.508202 279.805878,112.435883 278.944489,124.061775 
	C282.850647,124.061775 286.132416,124.059097 289.414215,124.062279 
	C298.903412,124.071487 301.508301,128.059799 297.174896,137.298920 
	C291.248108,138.119339 285.321289,138.939758 279.172913,139.790863 
	C279.816254,149.256699 281.214203,158.781097 287.304382,166.689484 
	C289.394897,169.404083 292.653931,172.377563 295.766327,172.892471 
	C301.336212,173.813919 307.199799,172.960220 313.634064,172.848022 
	C316.165863,170.577042 318.697693,168.306046 321.850525,166.106384 
	C322.911957,166.032898 323.973419,165.959396 325.875092,166.020874 
	C333.819427,167.064255 337.687500,161.969986 341.629700,155.938278 
	C342.124939,155.556488 342.620178,155.174683 343.918518,155.118378 
	C350.458984,155.564285 352.687775,154.429794 355.054230,148.504913 
	C356.395477,145.146835 357.040222,141.510559 358.632721,138.028503 
	C359.054321,138.035446 359.475891,138.042389 360.790253,138.162415 
	C368.133575,138.249359 368.186615,138.200241 368.064514,130.952194 
	C368.053619,130.303864 367.958130,129.656952 368.070801,128.157639 
	C368.345642,121.029945 363.032074,124.706444 359.697388,123.491928 
M73.156960,123.839867 
	C69.806107,124.259468 64.541817,121.917809 65.579941,129.843964 
	C65.372238,138.434204 65.419579,138.479721 74.705154,138.112900 
	C75.091591,138.088028 75.478027,138.063141 75.979782,138.820343 
	C76.920845,141.770187 77.676369,144.795547 78.840157,147.654739 
	C81.574905,154.373474 83.614967,155.564041 91.361488,155.107681 
	C91.884430,155.075485 92.407364,155.043289 93.355988,155.557938 
	C96.372635,161.968185 100.379601,167.237595 108.467697,165.599411 
	C111.668381,164.951157 113.067871,166.217758 115.088837,168.144974 
	C117.387192,170.336716 120.282623,172.862213 123.184776,173.250031 
	C128.343582,173.939392 133.703003,173.127533 139.695648,173.018829 
	C149.086075,168.666626 156.749451,151.164520 154.415100,138.940048 
	C150.513702,138.940048 146.546402,139.010620 142.582687,138.921783 
	C137.874725,138.816269 135.198471,136.093460 135.085358,131.482803 
	C134.970718,126.811226 137.490234,124.210747 142.451508,124.097412 
	C146.698303,124.000404 150.949066,124.077339 155.420868,124.077339 
	C154.933411,113.331779 153.296875,103.593895 147.894257,94.863144 
	C145.592422,91.143349 142.841522,87.818153 137.106018,87.053452 
	C133.511475,86.979073 129.912323,86.993927 126.323494,86.808891 
	C121.245659,86.547089 117.491936,88.568825 114.374763,93.333389 
	C113.722130,94.252487 113.069489,95.171577 112.421227,96.084511 
	C105.923508,91.679283 97.559830,94.682045 94.173706,102.907135 
	C93.758507,103.600220 93.343307,104.293304 92.277473,104.978561 
	C91.843910,104.988792 91.410355,104.999023 90.124817,104.859200 
	C83.070686,104.615364 81.461205,105.747887 78.338287,113.294670 
	C77.788643,115.868820 77.238998,118.442978 76.365578,121.643463 
	C76.252518,122.099609 76.139458,122.555763 75.445930,123.078117 
	C74.969070,123.364365 74.492218,123.650612 73.156960,123.839867 
M301.112122,232.790604 
	C300.916779,234.138443 300.721436,235.486282 300.213531,237.498901 
	C299.810669,239.868362 299.407806,242.237839 298.799316,245.816772 
	C302.775421,244.997360 305.828552,244.368164 309.783752,243.553070 
	C315.708618,247.361954 321.735016,246.832520 328.717957,240.983032 
	C329.470795,239.953506 330.223663,238.923981 331.644623,237.549057 
	C332.275787,234.662933 332.906982,231.776794 333.757935,228.289337 
	C333.280304,226.498657 332.802673,224.707962 332.163269,222.221695 
	C326.816132,214.321060 319.667297,215.967590 312.108063,218.940582 
	C312.326569,216.992706 312.491425,215.522949 312.936890,213.405090 
	C313.339355,210.901016 313.741852,208.396927 314.141144,205.912643 
	C306.052551,204.454041 305.820465,204.616821 304.879669,211.896423 
	C304.795929,212.544617 304.727570,213.194794 304.162720,214.407028 
	C303.916992,216.605164 303.671265,218.803314 303.138184,221.725204 
	C302.842285,223.485748 302.546387,225.246277 302.017731,227.706589 
	C301.805542,229.143616 301.593323,230.580643 301.112122,232.790604 
M265.249420,228.301743 
	C264.651642,229.464890 264.053833,230.628021 263.000031,232.237885 
	C262.542053,232.857910 262.084106,233.477921 261.382812,234.427368 
	C260.745972,233.001022 260.300934,232.004272 259.914124,230.315598 
	C259.580627,229.212341 259.247101,228.109070 258.982941,226.269028 
	C258.621826,224.844650 258.260742,223.420258 257.948029,221.206894 
	C257.483032,219.151505 257.018066,217.096115 256.688690,214.246216 
	C255.319168,205.218170 254.287689,204.519028 245.449295,207.051392 
	C246.358170,210.656372 247.273148,214.285568 248.122131,218.626648 
	C248.453751,219.751114 248.785385,220.875565 249.056213,222.735931 
	C249.421509,224.163940 249.786804,225.591949 250.097946,227.706665 
	C250.419205,228.806107 250.740479,229.905548 250.973724,231.730698 
	C251.470428,233.513519 251.967133,235.296326 252.580185,237.937927 
	C253.087234,240.276962 253.594284,242.616013 254.145782,245.160126 
	C256.521515,245.160126 258.558685,245.515488 260.399872,245.066742 
	C262.519257,244.550217 264.878845,243.747971 266.376709,242.291107 
	C268.057343,240.656525 268.890930,238.151031 270.656189,235.668335 
	C271.250763,234.476669 271.845337,233.285004 272.906494,231.635269 
	C273.750824,230.122299 274.595154,228.609329 275.906067,226.716858 
	C276.586792,225.473175 277.267487,224.229492 278.444214,222.531296 
	C278.964630,221.329239 279.485046,220.127182 280.631927,218.698151 
	C281.806305,216.542862 282.980682,214.387573 284.700195,211.819305 
	C285.743439,210.133575 286.786652,208.447830 288.269073,206.052338 
	C282.802643,206.626068 277.272614,203.769592 275.113556,211.270859 
	C274.110443,213.182648 273.107330,215.094437 271.643555,217.508926 
	C270.644592,219.300491 269.645599,221.092056 268.156403,223.291000 
	C267.354645,224.821808 266.552887,226.352600 265.249420,228.301743 
M295.092224,230.288422 
	C295.371582,228.515106 295.650940,226.741806 296.327515,224.354965 
	C296.754181,222.133377 297.180847,219.911789 297.607483,217.690323 
	C288.947723,216.219315 288.837341,216.299240 287.926422,224.760513 
	C287.614349,226.840775 287.302277,228.921051 286.648865,231.647369 
	C286.451752,233.100494 286.254639,234.553619 285.766296,236.719147 
	C285.222443,239.283264 284.678589,241.847366 284.135925,244.405762 
	C291.988129,246.104111 292.286407,245.927689 293.545135,238.981491 
	C293.661743,238.337952 293.679077,237.676453 294.000946,236.299210 
	C294.283447,234.540146 294.565948,232.781097 295.092224,230.288422 
M216.537949,126.403557 
	C216.739334,124.598373 216.940735,122.793182 217.542206,120.338028 
	C217.719421,118.559212 217.896637,116.780396 218.447372,114.336098 
	C218.606964,112.559380 218.766556,110.782654 219.256805,108.296112 
	C219.468109,106.187767 219.679398,104.079414 220.288498,101.450394 
	C220.197052,99.638710 220.105621,97.827034 220.486237,95.686340 
	C220.639359,95.126831 220.792496,94.567329 221.427597,93.457047 
	C221.460739,92.977898 221.493866,92.498749 221.845886,91.271362 
	C222.040558,89.930801 222.235229,88.590240 222.429916,87.249672 
	C222.813171,87.170494 223.196442,87.091324 223.579712,87.012146 
	C224.677780,90.020828 225.775864,93.029510 226.845642,96.885147 
	C227.350250,99.589394 227.854858,102.293640 228.275818,105.727104 
	C228.737625,107.852936 229.199417,109.978760 229.619568,112.946953 
	C230.109360,115.294357 230.599152,117.641769 231.021255,120.795921 
	C231.729462,123.867638 232.437668,126.939354 233.112793,130.720032 
	C233.966339,132.848663 234.819885,134.977310 235.780167,137.823761 
	C237.369064,141.515137 239.870560,145.234100 243.968842,144.420502 
	C246.685059,143.881287 248.797226,140.299377 251.736969,137.629272 
	C252.451675,135.734665 253.166382,133.840042 254.388412,131.432892 
	C255.049942,130.052933 255.711472,128.672989 256.981171,126.024414 
	C258.626190,128.185669 259.759308,129.674393 261.219147,131.774628 
	C264.717560,133.026718 268.148804,135.048157 271.729279,135.360947 
	C277.997528,135.908585 284.357330,135.382935 290.678986,135.356659 
	C293.501099,135.344925 296.213104,135.296875 296.152374,131.378128 
	C296.087830,127.213448 293.037750,127.933922 290.424957,127.836983 
	C283.308136,127.572914 276.193176,127.258316 268.733002,126.385414 
	C267.128571,124.266701 265.524139,122.147987 263.815247,119.345207 
	C261.968964,116.228333 259.514832,112.805428 255.760757,114.156189 
	C252.962158,115.163162 251.019638,118.549416 248.218323,121.346329 
	C247.122559,124.178291 246.026810,127.010262 244.504822,129.976181 
	C244.504822,129.976181 244.058105,129.981812 243.916031,129.223312 
	C242.964447,125.814720 242.012878,122.406136 241.197495,118.199356 
	C240.785187,116.134796 240.372879,114.070229 240.045807,111.186569 
	C239.522659,108.792244 238.999496,106.397926 238.639313,103.266830 
	C238.047363,100.514732 237.455429,97.762642 236.954605,94.206276 
	C235.691422,90.109703 234.428238,86.013130 233.059082,81.212761 
	C229.787827,75.215759 226.679916,73.145187 221.595428,73.976929 
	C216.007538,74.890999 213.892273,78.926125 212.749832,84.666420 
	C212.204330,87.450020 211.658829,90.233612 210.867050,93.757935 
	C210.350510,96.841499 209.833969,99.925056 209.074280,103.763100 
	C208.785248,105.844559 208.496216,107.926025 208.001221,110.802246 
	C207.885941,112.162773 207.770660,113.523293 207.292770,115.511398 
	C207.022141,117.677963 206.751511,119.844528 206.213745,122.738380 
	C206.042679,124.482231 205.871628,126.226082 205.325134,128.742157 
	C205.194275,130.158066 205.063416,131.573975 204.474350,133.625107 
	C204.174728,135.695770 203.875122,137.766418 203.090118,140.373245 
	C202.849457,141.573700 202.608795,142.774155 202.127014,145.177261 
	C201.038773,142.560242 200.507828,141.283386 200.032074,139.214294 
	C199.331894,136.478424 198.631714,133.742569 198.018494,130.258560 
	C197.395813,128.188309 196.773117,126.118042 196.409988,123.507660 
	C195.738892,121.285652 195.067810,119.063652 194.339355,116.145302 
	C193.597107,114.759987 192.854858,113.374680 192.125076,111.258270 
	C190.460587,107.797028 187.858307,105.648102 183.872116,106.099998 
	C179.874664,106.553185 177.956940,109.374016 176.554749,113.530685 
	C176.060837,115.027382 175.566925,116.524078 174.656906,118.564758 
	C172.888901,121.252388 171.120911,123.940018 168.599350,126.795418 
	C166.507980,127.150406 164.421875,127.769348 162.324265,127.811119 
	C155.918106,127.938721 149.507492,127.852661 143.098679,127.831421 
	C140.880646,127.824074 138.601608,127.678520 138.652328,131.827866 
	C139.756577,132.990814 140.845673,135.143051 141.967484,135.160263 
	C150.976501,135.298416 159.991684,135.033737 169.743851,134.995056 
	C173.035126,132.701477 176.326416,130.407898 180.129288,127.751419 
	C181.566971,125.169533 183.004669,122.587639 184.731995,119.485580 
	C185.631134,122.007690 186.339203,123.993858 187.007660,126.738777 
	C187.539261,128.849197 188.070862,130.959625 188.611603,133.846283 
	C189.060501,135.564056 189.509399,137.281845 189.921967,139.793106 
	C190.953644,143.194839 191.985321,146.596558 192.999069,150.741272 
	C193.854355,152.695023 194.478989,154.794983 195.607513,156.575562 
	C199.213837,162.265518 205.661362,162.265717 209.198700,156.569275 
	C210.210968,154.939133 210.640930,152.947372 211.770813,150.544647 
	C212.470642,147.028687 213.170456,143.512726 214.175156,139.263275 
	C214.470810,137.179031 214.766479,135.094772 215.472260,132.375961 
	C215.685974,130.597733 215.899704,128.819519 216.537949,126.403557 
M343.179199,220.865417 
	C341.724213,222.886139 340.269257,224.906860 338.318756,227.400909 
	C337.961304,228.942810 337.603882,230.484711 337.105713,232.794662 
	C337.460693,234.530884 337.815643,236.267105 338.221527,238.688019 
	C343.040741,247.150436 355.941772,248.492645 365.117065,241.076859 
	C363.724731,239.673050 362.375519,238.312714 361.171204,237.098465 
	C354.289459,240.552765 350.469025,240.765701 346.620667,237.574081 
	C346.158173,236.478561 345.695679,235.383057 346.097443,233.978546 
	C351.748962,233.893524 357.415344,233.521820 363.047241,233.814484 
	C367.528503,234.047333 369.164185,232.346878 368.813232,227.515045 
	C368.321442,225.969910 367.829651,224.424774 367.178314,222.187012 
	C361.468658,214.996582 351.178345,214.283203 343.179199,220.865417 
M184.650681,227.506302 
	C186.549454,224.095139 189.376816,221.983337 193.243576,223.425888 
	C197.530502,225.025177 196.102631,228.833115 195.596619,232.050323 
	C194.933899,236.263824 194.160095,240.459839 193.386993,244.935974 
	C196.426697,244.935974 198.855682,244.935974 201.701050,244.935974 
	C202.762024,238.569412 204.080841,232.394653 204.747772,226.150269 
	C205.378540,220.244339 201.914368,216.508347 195.983276,216.536484 
	C192.927917,216.550964 189.877258,217.556335 186.235870,218.221451 
	C186.828369,214.052933 187.417679,209.906799 188.003815,205.782990 
	C179.977844,204.707718 179.948959,204.702545 178.723022,211.537811 
	C177.665985,217.431381 176.715668,223.344070 175.660660,229.238022 
	C174.734161,234.414230 173.727875,239.576172 172.720932,244.935410 
	C175.754105,244.935410 178.185806,244.935410 180.836090,244.935410 
	C182.008331,239.226257 183.140442,233.712616 184.650681,227.506302 
M85.470856,230.156967 
	C87.937416,230.156967 90.403976,230.156967 93.261360,230.156967 
	C93.619484,227.656647 93.929665,225.491058 94.296494,222.929932 
	C88.014580,222.929932 82.396782,222.929932 76.316208,222.929932 
	C76.871063,219.510376 77.363548,216.475250 77.906799,213.127228 
	C82.839806,213.127228 87.310432,213.130829 91.781059,213.126373 
	C98.246849,213.119904 98.246849,213.117416 98.004715,206.409607 
	C88.781555,206.409607 79.554062,206.409607 70.084396,206.409607 
	C67.932007,219.320267 65.820152,231.987732 63.682606,244.809326 
	C67.139046,244.809326 69.722641,244.809326 72.437645,244.809326 
	C72.855743,242.779602 73.242485,241.017319 73.579735,239.245605 
	C75.305031,230.181854 75.300560,230.181000 85.470856,230.156967 
M216.055862,219.465317 
	C208.039749,226.174881 206.055115,235.727066 211.469650,241.539200 
	C216.847809,247.312317 229.879501,247.132477 236.002136,241.033035 
	C234.795853,239.735306 233.584290,238.431915 232.430679,237.190872 
	C223.393677,241.628677 218.477814,240.620468 216.996017,233.615265 
	C222.531570,233.615265 227.956238,233.595123 233.380707,233.620377 
	C240.071213,233.651520 241.793243,231.457947 239.908096,224.906754 
	C238.645630,220.519547 235.496643,217.312302 231.118484,217.158096 
	C226.330399,216.989441 221.488312,218.354767 216.055862,219.465317 
M163.820404,213.155579 
	C165.152863,213.153610 166.485336,213.151413 167.817795,213.149689 
	C174.348343,213.141251 174.348343,213.141296 173.686081,206.144180 
	C164.589630,206.144180 155.459045,206.145279 146.328461,206.143799 
	C140.047546,206.142776 140.047546,206.141190 140.094360,213.284180 
	C143.823181,213.284180 147.566376,213.284180 151.892441,213.284180 
	C150.008896,224.098587 148.227325,234.327377 146.446793,244.550308 
	C154.887848,245.907425 154.943085,245.917877 156.401733,238.210541 
	C157.731796,231.182632 158.816757,224.106445 160.266632,217.104721 
	C160.563644,215.670395 162.000671,214.472137 163.820404,213.155579 
M124.701408,236.440582 
	C125.460846,232.079147 126.220291,227.717728 127.032852,223.051270 
	C130.154968,223.051270 132.764267,223.051270 135.670135,223.051270 
	C135.962463,220.967133 136.202591,219.255142 136.485855,217.235596 
	C133.574814,217.050797 131.145828,216.896606 128.481552,216.727463 
	C128.662445,213.871445 128.823792,211.324371 129.011490,208.361069 
	C126.152237,208.513962 123.750748,208.642365 122.157516,208.727570 
	C120.592567,211.923523 119.679161,216.306274 118.076050,216.575012 
	C113.835480,217.285950 114.155586,219.771744 113.928398,222.693893 
	C115.352867,223.015625 116.713753,223.322983 118.368317,223.696655 
	C117.742508,227.429871 117.207962,230.862183 116.586395,234.278687 
	C115.020409,242.886322 118.825882,246.794296 127.663002,245.608551 
	C133.220505,244.862854 133.618683,244.181503 132.141479,239.741150 
	C129.241791,238.776871 127.033676,238.042572 124.701408,236.440582 
M106.648254,239.201431 
	C107.900566,231.928040 109.152885,224.654663 110.413437,217.333420 
	C107.182495,217.333420 104.745193,217.333420 102.052704,217.333420 
	C100.451530,226.622787 98.889763,235.683502 97.253723,245.175125 
	C99.355263,245.175125 100.831039,245.203873 102.305023,245.164948 
	C103.278191,245.139252 104.248779,245.016235 105.451965,244.917877 
	C105.796875,243.185272 106.114243,241.591019 106.648254,239.201431 
M293.651154,213.149857 
	C295.683197,211.911163 297.715210,210.672470 299.747223,209.433762 
	C298.721710,207.956696 297.689789,205.252457 296.672028,205.257782 
	C294.547028,205.268845 292.429474,206.710678 290.308868,207.564743 
	C291.151825,209.380981 291.994751,211.197220 293.651154,213.149857 
M112.193245,210.004395 
	C112.722214,207.306335 111.923637,205.035309 109.003380,205.032822 
	C107.135361,205.031219 104.910904,206.053131 103.543526,207.350891 
	C102.832573,208.025635 103.300270,211.492233 103.810539,211.634430 
	C105.977524,212.238358 108.360985,212.149460 110.662354,212.114319 
	C111.106743,212.107544 111.537491,211.207077 112.193245,210.004395 
z"/>
<path fill="#0C626B" opacity="1.000000" stroke="none" 
	d="
M138.005447,87.334946 
	C142.841522,87.818153 145.592422,91.143349 147.894257,94.863144 
	C153.296875,103.593895 154.933411,113.331779 155.420868,124.077339 
	C150.949066,124.077339 146.698303,124.000404 142.451508,124.097412 
	C137.490234,124.210747 134.970718,126.811226 135.085358,131.482803 
	C135.198471,136.093460 137.874725,138.816269 142.582687,138.921783 
	C146.546402,139.010620 150.513702,138.940048 154.415100,138.940048 
	C156.749451,151.164520 149.086075,168.666626 139.132080,172.730469 
	C136.816345,171.626404 135.064178,170.810684 133.149139,169.747086 
	C132.655731,169.315262 132.325165,169.131332 131.992874,168.974670 
	C131.991135,169.001938 132.045486,169.007477 132.050903,168.635925 
	C124.698647,153.610611 123.004227,138.075897 125.296661,121.992462 
	C132.712234,121.990623 134.726471,120.670120 134.997406,115.923599 
	C135.338760,109.943077 132.909912,106.752312 127.374680,105.485062 
	C129.676788,100.386765 131.964874,95.694656 134.565399,90.959732 
	C135.920364,89.722923 136.962906,88.528938 138.005447,87.334946 
z"/>
<path fill="#10646D" opacity="1.000000" stroke="none" 
	d="
M133.312012,169.994965 
	C135.064178,170.810684 136.816345,171.626404 138.773499,172.692902 
	C133.703003,173.127533 128.343582,173.939392 123.184776,173.250031 
	C120.282623,172.862213 117.387192,170.336716 115.088837,168.144974 
	C113.067871,166.217758 111.668381,164.951157 108.467697,165.599411 
	C100.379601,167.237595 96.372635,161.968185 93.129128,154.896698 
	C91.659561,145.506363 90.416847,136.777283 89.606155,128.033417 
	C93.947144,127.539124 97.856110,127.059624 101.817627,127.015305 
	C101.933380,139.809845 102.734818,152.000137 109.241280,162.781876 
	C108.144547,151.176773 107.048653,139.580627 106.369614,127.977783 
	C111.214394,126.972710 115.642342,125.974358 120.140533,125.439545 
	C120.206711,128.557861 120.079109,131.219223 120.219940,133.866272 
	C120.830650,145.344833 121.920464,156.742920 128.306824,166.771637 
	C129.004059,167.866531 130.773407,168.278671 132.045486,169.007477 
	C132.045486,169.007477 131.991135,169.001938 131.689667,169.218170 
	C132.029480,169.621246 132.670746,169.808105 133.312012,169.994965 
z"/>
<path fill="#0E666E" opacity="1.000000" stroke="none" 
	d="
M298.003235,87.136917 
	C301.947296,87.056633 306.130493,86.120255 309.768341,87.136337 
	C313.421448,88.156685 316.531158,91.122345 319.793610,93.893875 
	C315.852051,95.698799 311.995941,96.845337 307.903198,97.737869 
	C305.903656,95.328918 305.279724,91.695526 301.963043,92.142311 
	C303.841125,97.471489 305.681427,102.693474 307.129120,107.951981 
	C302.237823,109.770714 300.399475,113.173828 301.172852,117.822693 
	C302.047058,123.077805 306.299042,121.899139 309.895264,122.438110 
	C309.994995,124.572487 310.006378,126.286163 309.665344,128.035690 
	C307.210327,130.041412 305.209015,132.137161 302.970184,133.937592 
	C301.438782,135.169144 299.576385,135.989136 297.861969,136.993103 
	C301.508301,128.059799 298.903412,124.071487 289.414215,124.062279 
	C286.132416,124.059097 282.850647,124.061775 278.944489,124.061775 
	C279.805878,112.435883 281.134796,101.508202 288.364471,92.393600 
	C290.011230,90.317528 292.827606,89.169174 295.582397,87.874947 
	C296.512451,88.543289 296.965759,88.930511 297.419037,89.317734 
	C297.613770,88.590797 297.808502,87.863853 298.003235,87.136917 
M299.260529,88.815048 
	C299.375397,88.973213 299.490234,89.131378 299.605072,89.289551 
	C299.581818,89.069427 299.558533,88.849312 299.260529,88.815048 
z"/>
<path fill="#0F646D" opacity="1.000000" stroke="none" 
	d="
M297.518433,137.146027 
	C299.576385,135.989136 301.438782,135.169144 302.970184,133.937592 
	C305.209015,132.137161 307.210327,130.041412 309.761536,128.494781 
	C310.425385,143.528214 309.051178,157.797455 300.346008,171.157455 
	C302.208740,170.820999 303.115295,170.657257 304.438507,170.674194 
	C307.550323,171.519424 310.245483,172.183990 312.940613,172.848557 
	C307.199799,172.960220 301.336212,173.813919 295.766327,172.892471 
	C292.653931,172.377563 289.394897,169.404083 287.304382,166.689484 
	C281.214203,158.781097 279.816254,149.256699 279.172913,139.790863 
	C285.321289,138.939758 291.248108,138.119339 297.518433,137.146027 
z"/>
<path fill="#156670" opacity="1.000000" stroke="none" 
	d="
M184.461609,227.852631 
	C183.140442,233.712616 182.008331,239.226257 180.836090,244.935410 
	C178.185806,244.935410 175.754105,244.935410 172.720932,244.935410 
	C173.727875,239.576172 174.734161,234.414230 175.660660,229.238022 
	C176.715668,223.344070 177.665985,217.431381 178.723022,211.537811 
	C179.948959,204.702545 179.977844,204.707718 188.003815,205.782990 
	C187.417679,209.906799 186.828369,214.052933 186.235870,218.221451 
	C189.877258,217.556335 192.927917,216.550964 195.983276,216.536484 
	C201.914368,216.508347 205.378540,220.244339 204.747772,226.150269 
	C204.080841,232.394653 202.762024,238.569412 201.701050,244.935974 
	C198.855682,244.935974 196.426697,244.935974 193.386993,244.935974 
	C194.160095,240.459839 194.933899,236.263824 195.596619,232.050323 
	C196.102631,228.833115 197.530502,225.025177 193.243576,223.425888 
	C189.376816,221.983337 186.549454,224.095139 184.461609,227.852631 
z"/>
<path fill="#156670" opacity="1.000000" stroke="none" 
	d="
M84.991676,230.157562 
	C75.300560,230.181000 75.305031,230.181854 73.579735,239.245605 
	C73.242485,241.017319 72.855743,242.779602 72.437645,244.809326 
	C69.722641,244.809326 67.139046,244.809326 63.682606,244.809326 
	C65.820152,231.987732 67.932007,219.320267 70.084396,206.409607 
	C79.554062,206.409607 88.781555,206.409607 98.004715,206.409607 
	C98.246849,213.117416 98.246849,213.119904 91.781059,213.126373 
	C87.310432,213.130829 82.839806,213.127228 77.906799,213.127228 
	C77.363548,216.475250 76.871063,219.510376 76.316208,222.929932 
	C82.396782,222.929932 88.014580,222.929932 94.296494,222.929932 
	C93.929665,225.491058 93.619484,227.656647 93.261360,230.156967 
	C90.403976,230.156967 87.937416,230.156967 84.991676,230.157562 
z"/>
<path fill="#0A616A" opacity="1.000000" stroke="none" 
	d="
M313.287354,172.848297 
	C310.245483,172.183990 307.550323,171.519424 304.623108,170.360291 
	C306.937103,163.985367 310.523407,158.317322 311.777344,152.173294 
	C313.514832,143.660080 313.498901,134.789032 314.630737,126.050201 
	C319.551880,126.717560 324.076019,127.405914 328.657959,128.530914 
	C328.592224,141.802414 327.273651,154.395935 321.229523,166.035065 
	C318.697693,168.306046 316.165863,170.577042 313.287354,172.848297 
z"/>
<path fill="#156670" opacity="1.000000" stroke="none" 
	d="
M216.362808,219.258423 
	C221.488312,218.354767 226.330399,216.989441 231.118484,217.158096 
	C235.496643,217.312302 238.645630,220.519547 239.908096,224.906754 
	C241.793243,231.457947 240.071213,233.651520 233.380707,233.620377 
	C227.956238,233.595123 222.531570,233.615265 216.996017,233.615265 
	C218.477814,240.620468 223.393677,241.628677 232.430679,237.190872 
	C233.584290,238.431915 234.795853,239.735306 236.002136,241.033035 
	C229.879501,247.132477 216.847809,247.312317 211.469650,241.539200 
	C206.055115,235.727066 208.039749,226.174881 216.362808,219.258423 
M232.486298,226.799561 
	C231.681366,223.022919 229.090469,221.694000 225.561432,222.073700 
	C221.749390,222.483841 218.904755,224.236450 217.744370,229.395676 
	C223.075790,228.732925 227.770111,228.149353 232.486298,226.799561 
z"/>
<path fill="#13656F" opacity="1.000000" stroke="none" 
	d="
M163.366302,213.160324 
	C162.000671,214.472137 160.563644,215.670395 160.266632,217.104721 
	C158.816757,224.106445 157.731796,231.182632 156.401733,238.210541 
	C154.943085,245.917877 154.887848,245.907425 146.446793,244.550308 
	C148.227325,234.327377 150.008896,224.098587 151.892441,213.284180 
	C147.566376,213.284180 143.823181,213.284180 140.094360,213.284180 
	C140.047546,206.141190 140.047546,206.142776 146.328461,206.143799 
	C155.459045,206.145279 164.589630,206.144180 173.686081,206.144180 
	C174.348343,213.141296 174.348343,213.141251 167.817795,213.149689 
	C166.485336,213.151413 165.152863,213.153610 163.366302,213.160324 
z"/>
<path fill="#0A616A" opacity="1.000000" stroke="none" 
	d="
M340.970764,155.995193 
	C337.687500,161.969986 333.819427,167.064255 325.335510,165.643494 
	C325.811798,162.674042 326.783417,160.063568 327.851440,157.493164 
	C331.898224,147.753769 332.278473,137.449570 332.967957,127.104500 
	C337.196991,127.396584 341.045227,127.715340 344.969971,128.490143 
	C343.687958,137.962540 342.329346,146.978867 340.970764,155.995193 
z"/>
<path fill="#156670" opacity="1.000000" stroke="none" 
	d="
M124.763489,236.874420 
	C127.033676,238.042572 129.241791,238.776871 132.141479,239.741150 
	C133.618683,244.181503 133.220505,244.862854 127.663002,245.608551 
	C118.825882,246.794296 115.020409,242.886322 116.586395,234.278687 
	C117.207962,230.862183 117.742508,227.429871 118.368317,223.696655 
	C116.713753,223.322983 115.352867,223.015625 113.928398,222.693893 
	C114.155586,219.771744 113.835480,217.285950 118.076050,216.575012 
	C119.679161,216.306274 120.592567,211.923523 122.157516,208.727570 
	C123.750748,208.642365 126.152237,208.513962 129.011490,208.361069 
	C128.823792,211.324371 128.662445,213.871445 128.481552,216.727463 
	C131.145828,216.896606 133.574814,217.050797 136.485855,217.235596 
	C136.202591,219.255142 135.962463,220.967133 135.670135,223.051270 
	C132.764267,223.051270 130.154968,223.051270 127.032852,223.051270 
	C126.220291,227.717728 125.460846,232.079147 124.763489,236.874420 
z"/>
<path fill="#13656F" opacity="1.000000" stroke="none" 
	d="
M357.998657,137.999588 
	C357.040222,141.510559 356.395477,145.146835 355.054230,148.504913 
	C352.687775,154.429794 350.458984,155.564285 343.705322,154.685394 
	C349.498688,145.334564 349.196259,135.162247 349.715515,125.059708 
	C352.677551,125.053459 355.218903,125.057159 357.856903,125.511093 
	C357.968628,129.974091 357.983643,133.986832 357.998657,137.999588 
z"/>
<path fill="#156670" opacity="1.000000" stroke="none" 
	d="
M106.539932,239.599091 
	C106.114243,241.591019 105.796875,243.185272 105.451965,244.917877 
	C104.248779,245.016235 103.278191,245.139252 102.305023,245.164948 
	C100.831039,245.203873 99.355263,245.175125 97.253723,245.175125 
	C98.889763,235.683502 100.451530,226.622787 102.052704,217.333420 
	C104.745193,217.333420 107.182495,217.333420 110.413437,217.333420 
	C109.152885,224.654663 107.900566,231.928040 106.539932,239.599091 
z"/>
<path fill="#0C626B" opacity="1.000000" stroke="none" 
	d="
M90.842255,155.176071 
	C83.614967,155.564041 81.574905,154.373474 78.840157,147.654739 
	C77.676369,144.795547 76.920845,141.770187 75.999008,137.972122 
	C76.077751,133.434540 76.137268,129.745193 76.621178,126.039474 
	C79.562469,126.050095 82.079376,126.077087 84.673309,126.557266 
	C84.545860,136.882431 85.681137,146.464630 90.842255,155.176071 
z"/>
<path fill="#279B63" opacity="1.000000" stroke="none" 
	d="
M269.077484,126.963730 
	C276.193176,127.258316 283.308136,127.572914 290.424957,127.836983 
	C293.037750,127.933922 296.087830,127.213448 296.152374,131.378128 
	C296.213104,135.296875 293.501099,135.344925 290.678986,135.356659 
	C284.357330,135.382935 277.997528,135.908585 271.729279,135.360947 
	C268.148804,135.048157 264.717560,133.026718 261.145447,131.092606 
	C263.740295,129.261627 266.408905,128.112686 269.077484,126.963730 
z"/>
<path fill="#91CB4C" opacity="1.000000" stroke="none" 
	d="
M211.113327,93.017212 
	C211.658829,90.233612 212.204330,87.450020 213.357315,84.337158 
	C216.563278,83.713554 219.160645,83.409134 221.760483,83.127266 
	C225.561081,82.715210 229.363434,82.319336 233.165039,81.916565 
	C234.428238,86.013130 235.691422,90.109703 236.494202,94.607849 
	C232.980515,95.352348 229.927216,95.695274 226.873932,96.038193 
	C225.775864,93.029510 224.677780,90.020828 223.579712,87.012146 
	C223.196442,87.091324 222.813171,87.170494 222.429916,87.249672 
	C222.235229,88.590240 222.040558,89.930801 221.297211,91.643143 
	C217.536804,92.349022 214.325058,92.683113 211.113327,93.017212 
z"/>
<path fill="#E4EDEE" opacity="1.000000" stroke="none" 
	d="
M332.587128,127.131165 
	C332.278473,137.449570 331.898224,147.753769 327.851440,157.493164 
	C326.783417,160.063568 325.811798,162.674042 324.915405,165.576004 
	C323.973419,165.959396 322.911957,166.032898 321.540039,166.070724 
	C327.273651,154.395935 328.592224,141.802414 328.737915,128.146332 
	C328.474579,125.222023 328.189087,123.118927 327.955353,120.598099 
	C327.410461,116.765976 326.813843,113.351593 326.186523,109.547226 
	C325.352295,106.750595 324.548737,104.343941 323.765442,101.532059 
	C323.620453,100.618523 323.455170,100.110222 323.696533,99.644150 
	C325.452881,101.115685 326.802582,102.545006 328.170837,104.324570 
	C328.934143,106.870377 329.678894,109.065933 330.488861,111.673752 
	C331.139282,115.740883 331.724487,119.395752 332.249390,123.460617 
	C332.321747,124.957458 332.454437,126.044312 332.587128,127.131165 
z"/>
<path fill="#129569" opacity="1.000000" stroke="none" 
	d="
M199.976868,140.006531 
	C200.507828,141.283386 201.038773,142.560242 202.127014,145.177261 
	C202.608795,142.774155 202.849457,141.573700 203.811462,140.147797 
	C207.645294,139.947159 210.757782,139.971970 213.870270,139.996765 
	C213.170456,143.512726 212.470642,147.028687 211.123123,150.761902 
	C204.655945,150.652191 198.836472,150.325241 193.016983,149.998291 
	C191.985321,146.596558 190.953644,143.194839 190.354980,139.404327 
	C193.850937,139.345871 196.913910,139.676193 199.976868,140.006531 
z"/>
<path fill="#1A7479" opacity="1.000000" stroke="none" 
	d="
M94.639053,102.519348 
	C97.559830,94.682045 105.923508,91.679283 112.421227,96.084511 
	C113.069489,95.171577 113.722130,94.252487 114.727272,93.501923 
	C118.455292,95.805504 121.830803,97.940552 125.175934,100.436996 
	C124.488174,102.568779 123.830803,104.339157 122.845230,105.952393 
	C119.301643,101.871208 114.881676,101.743889 110.327530,101.624626 
	C110.318756,100.891891 110.342155,100.472656 110.630989,99.998199 
	C111.088974,99.472679 111.281525,99.002373 111.474083,98.532074 
	C110.988976,98.670906 110.503868,98.809738 109.663605,98.948395 
	C108.134293,100.950760 106.960144,102.953300 105.372391,104.961914 
	C101.518867,104.151772 98.078964,103.335564 94.639053,102.519348 
z"/>
<path fill="#51B05A" opacity="1.000000" stroke="none" 
	d="
M268.905243,126.674576 
	C266.408905,128.112686 263.740295,129.261627 260.982086,130.786850 
	C259.759308,129.674393 258.626190,128.185669 256.981171,126.024414 
	C255.711472,128.672989 255.049942,130.052933 253.776794,131.533539 
	C250.420456,131.036865 247.675751,130.439545 244.931030,129.842224 
	C246.026810,127.010262 247.122559,124.178291 248.916901,121.147949 
	C254.383560,120.642807 259.151642,120.336037 263.919708,120.029274 
	C265.524139,122.147987 267.128571,124.266701 268.905243,126.674576 
z"/>
<path fill="#E4EDEE" opacity="1.000000" stroke="none" 
	d="
M91.101868,155.141876 
	C85.681137,146.464630 84.545860,136.882431 84.815552,126.138336 
	C84.955864,123.503563 85.030960,121.740913 85.273773,119.646057 
	C85.751450,117.597084 86.061417,115.880318 86.562546,113.862465 
	C88.161407,110.710678 89.569092,107.859970 90.976791,105.009262 
	C91.410355,104.999023 91.843910,104.988792 92.604561,105.325424 
	C92.663132,106.774757 92.394615,107.877243 91.945221,109.332748 
	C90.954933,114.143257 90.145523,118.600723 89.246017,123.466583 
	C89.161987,125.266045 89.168060,126.657120 89.174133,128.048203 
	C90.416847,136.777283 91.659561,145.506363 92.916290,154.623276 
	C92.407364,155.043289 91.884430,155.075485 91.101868,155.141876 
z"/>
<path fill="#E4EDEE" opacity="1.000000" stroke="none" 
	d="
M349.294800,125.069656 
	C349.196259,135.162247 349.498688,145.334564 343.303802,154.522659 
	C342.620178,155.174683 342.124939,155.556488 341.300232,155.966736 
	C342.329346,146.978867 343.687958,137.962540 345.034790,128.093201 
	C344.938385,126.173950 344.853790,125.107704 344.814880,123.635788 
	C343.943634,118.824303 343.026703,114.418495 342.109253,109.660828 
	C341.535095,107.861305 340.961548,106.413628 340.388000,104.965942 
	C341.056671,104.974495 341.725342,104.983055 342.826721,105.337112 
	C344.787476,108.800941 346.315491,111.919250 347.836456,115.411514 
	C348.146301,117.209732 348.463165,118.634003 348.759521,120.480263 
	C348.924255,122.291382 349.109528,123.680519 349.294800,125.069656 
z"/>
<path fill="#32A662" opacity="1.000000" stroke="none" 
	d="
M328.072113,241.151794 
	C321.735016,246.832520 315.708618,247.361954 309.783752,243.553070 
	C305.828552,244.368164 302.775421,244.997360 298.799316,245.816772 
	C299.407806,242.237839 299.810669,239.868362 300.863098,237.211182 
	C304.423279,236.919891 307.333954,236.916336 310.550232,237.115540 
	C313.929810,237.697281 317.003815,238.076294 320.506287,238.593414 
	C323.313873,239.538300 325.692993,240.345047 328.072113,241.151794 
z"/>
<path fill="#7CC04B" opacity="1.000000" stroke="none" 
	d="
M312.656281,214.053192 
	C312.491425,215.522949 312.326569,216.992706 312.108063,218.940582 
	C319.667297,215.967590 326.816132,214.321060 331.804474,222.600601 
	C328.556671,223.355301 325.667694,223.731094 322.414764,224.018936 
	C319.681610,223.797256 317.312408,223.663513 314.538757,223.339569 
	C310.564697,222.433411 306.995117,221.717438 303.425507,221.001450 
	C303.671265,218.803314 303.916992,216.605164 304.901489,214.167969 
	C307.978912,213.970352 310.317596,214.011765 312.656281,214.053192 
z"/>
<path fill="#0E666E" opacity="1.000000" stroke="none" 
	d="
M125.206314,100.075600 
	C121.830803,97.940552 118.455292,95.805504 115.034027,93.319244 
	C117.491936,88.568825 121.245659,86.547089 126.323494,86.808891 
	C129.912323,86.993927 133.511475,86.979073 137.555725,87.194199 
	C136.962906,88.528938 135.920364,89.722923 134.406738,90.649536 
	C131.025864,93.613304 128.116089,96.844452 125.206314,100.075600 
z"/>
<path fill="#51B05A" opacity="1.000000" stroke="none" 
	d="
M194.396729,116.841644 
	C195.067810,119.063652 195.738892,121.285652 195.850723,123.761093 
	C192.543396,124.669701 189.795334,125.324867 187.047272,125.980026 
	C186.339203,123.993858 185.631134,122.007690 184.731995,119.485580 
	C183.004669,122.587639 181.566971,125.169533 179.453735,127.901093 
	C175.636429,127.576393 172.494675,127.102020 169.352905,126.627647 
	C171.120911,123.940018 172.888901,121.252388 175.284561,118.287079 
	C182.218445,119.910927 188.318466,118.548485 194.396729,116.841644 
z"/>
<path fill="#6ABC5B" opacity="1.000000" stroke="none" 
	d="
M368.571747,228.086121 
	C369.164185,232.346878 367.528503,234.047333 363.047241,233.814484 
	C357.415344,233.521820 351.748962,233.893524 345.432068,233.816528 
	C342.259979,233.111862 339.753204,232.569244 337.246460,232.026611 
	C337.603882,230.484711 337.961304,228.942810 338.992920,227.184433 
	C341.853485,227.328842 344.039856,227.689728 346.515686,228.319427 
	C351.586975,228.397446 356.368896,228.206650 361.604004,228.011841 
	C364.228699,228.033920 366.400238,228.060013 368.571747,228.086121 
z"/>
<path fill="#32A662" opacity="1.000000" stroke="none" 
	d="
M168.976135,126.711533 
	C172.494675,127.102020 175.636429,127.576393 179.197952,128.082535 
	C176.326416,130.407898 173.035126,132.701477 169.353973,134.542328 
	C167.902069,133.391769 166.870621,132.143906 165.773193,132.082886 
	C156.784149,131.583252 147.782791,131.304718 138.785187,130.959015 
	C138.601608,127.678520 140.880646,127.824074 143.098679,127.831421 
	C149.507492,127.852661 155.918106,127.938721 162.324265,127.811119 
	C164.421875,127.769348 166.507980,127.150406 168.976135,126.711533 
z"/>
<path fill="#3AA95E" opacity="1.000000" stroke="none" 
	d="
M346.949005,238.151276 
	C350.469025,240.765701 354.289459,240.552765 361.171204,237.098465 
	C362.375519,238.312714 363.724731,239.673050 365.117065,241.076859 
	C355.941772,248.492645 343.040741,247.150436 338.594299,238.345337 
	C341.627747,238.052200 344.288361,238.101730 346.949005,238.151276 
z"/>
<path fill="#108B72" opacity="1.000000" stroke="none" 
	d="
M193.008026,150.369781 
	C198.836472,150.325241 204.655945,150.652191 210.906662,151.050293 
	C210.640930,152.947372 210.210968,154.939133 209.198700,156.569275 
	C205.661362,162.265717 199.213837,162.265518 195.607513,156.575562 
	C194.478989,154.794983 193.854355,152.695023 193.008026,150.369781 
z"/>
<path fill="#A0D14F" opacity="1.000000" stroke="none" 
	d="
M233.112061,81.564667 
	C229.363434,82.319336 225.561081,82.715210 221.760483,83.127266 
	C219.160645,83.409134 216.563278,83.713554 213.549652,84.010315 
	C213.892273,78.926125 216.007538,74.890999 221.595428,73.976929 
	C226.679916,73.145187 229.787827,75.215759 233.112061,81.564667 
z"/>
<path fill="#229E5E" opacity="1.000000" stroke="none" 
	d="
M270.093018,236.024445 
	C268.890930,238.151031 268.057343,240.656525 266.376709,242.291107 
	C264.878845,243.747971 262.519257,244.550217 260.399872,245.066742 
	C258.558685,245.515488 256.521515,245.160126 254.145782,245.160126 
	C253.594284,242.616013 253.087234,240.276962 252.978439,237.488312 
	C258.948792,236.700623 264.520905,236.362534 270.093018,236.024445 
z"/>
<path fill="#32A662" opacity="1.000000" stroke="none" 
	d="
M244.717926,129.909210 
	C247.675751,130.439545 250.420456,131.036865 253.523132,131.789795 
	C253.166382,133.840042 252.451675,135.734665 251.063080,137.684006 
	C245.483932,137.527802 240.578690,137.316864 235.673431,137.105927 
	C234.819885,134.977310 233.966339,132.848663 233.578491,130.363190 
	C237.382156,129.998169 240.720139,129.989990 244.058105,129.981812 
	C244.058105,129.981812 244.504822,129.976181 244.717926,129.909210 
z"/>
<path fill="#237A7E" opacity="1.000000" stroke="none" 
	d="
M328.152283,103.974327 
	C326.802582,102.545006 325.452881,101.115685 323.564087,99.421219 
	C322.689392,98.122147 322.353790,97.088219 322.018158,96.054291 
	C325.990906,91.866005 335.094391,94.033760 337.960876,99.855186 
	C338.303619,100.551231 338.609558,101.265404 338.894409,102.565575 
	C335.288300,103.431419 331.720276,103.702873 328.152283,103.974327 
z"/>
<path fill="#91CB4C" opacity="1.000000" stroke="none" 
	d="
M343.808838,220.566895 
	C351.178345,214.283203 361.468658,214.996582 366.831787,222.564972 
	C364.346069,223.289886 362.206909,223.636841 359.738708,223.820923 
	C356.222015,223.579971 353.034302,223.501892 349.446991,223.252655 
	C347.301178,222.243286 345.555023,221.405090 343.808838,220.566895 
z"/>
<path fill="#45AC57" opacity="1.000000" stroke="none" 
	d="
M243.987061,129.602570 
	C240.720139,129.989990 237.382156,129.998169 233.595032,130.008728 
	C232.437668,126.939354 231.729462,123.867638 231.486496,120.398865 
	C234.988266,119.667053 238.024780,119.332298 241.061310,118.997543 
	C242.012878,122.406136 242.964447,125.814720 243.987061,129.602570 
z"/>
<path fill="#129569" opacity="1.000000" stroke="none" 
	d="
M138.718750,131.393433 
	C147.782791,131.304718 156.784149,131.583252 165.773193,132.082886 
	C166.870621,132.143906 167.902069,133.391769 168.984543,134.490921 
	C159.991684,135.033737 150.976501,135.298416 141.967484,135.160263 
	C140.845673,135.143051 139.756577,132.990814 138.718750,131.393433 
z"/>
<path fill="#7CC04B" opacity="1.000000" stroke="none" 
	d="
M210.990189,93.387573 
	C214.325058,92.683113 217.536804,92.349022 221.137772,92.017258 
	C221.493866,92.498749 221.460739,92.977898 220.991821,93.850342 
	C220.375427,94.834213 220.194794,95.424782 220.014160,96.015350 
	C220.105621,97.827034 220.197052,99.638710 219.669556,101.721191 
	C215.806229,102.330864 212.561829,102.669739 209.317429,103.008621 
	C209.833969,99.925056 210.350510,96.841499 210.990189,93.387573 
z"/>
<path fill="#96CC53" opacity="1.000000" stroke="none" 
	d="
M248.188126,217.914749 
	C247.273148,214.285568 246.358170,210.656372 245.449295,207.051392 
	C254.287689,204.519028 255.319168,205.218170 256.260681,214.648895 
	C253.284515,216.005981 250.736313,216.960373 248.188126,217.914749 
z"/>
<path fill="#6BBC51" opacity="1.000000" stroke="none" 
	d="
M194.368042,116.493469 
	C188.318466,118.548485 182.218445,119.910927 175.492615,118.015076 
	C175.566925,116.524078 176.060837,115.027382 177.229355,113.264130 
	C182.640182,112.661499 187.376389,112.325432 192.112610,111.989365 
	C192.854858,113.374680 193.597107,114.759987 194.368042,116.493469 
z"/>
<path fill="#126B72" opacity="1.000000" stroke="none" 
	d="
M321.714600,95.971191 
	C322.353790,97.088219 322.689392,98.122147 323.157471,99.378998 
	C323.455170,100.110222 323.620453,100.618523 323.344543,101.539024 
	C318.907684,102.979248 314.911987,104.007278 310.708191,104.758469 
	C309.713348,102.318390 308.926575,100.155136 308.139801,97.991882 
	C311.995941,96.845337 315.852051,95.698799 319.881653,94.220901 
	C320.507080,94.555717 320.959076,95.221901 321.714600,95.971191 
z"/>
<path fill="#7CC04B" opacity="1.000000" stroke="none" 
	d="
M226.859787,96.461670 
	C229.927216,95.695274 232.980515,95.352348 236.448639,95.009979 
	C237.455429,97.762642 238.047363,100.514732 238.156448,103.636200 
	C234.568878,104.336334 231.464157,104.667114 228.359467,104.997894 
	C227.854858,102.293640 227.350250,99.589394 226.859787,96.461670 
z"/>
<path fill="#3AA95E" opacity="1.000000" stroke="none" 
	d="
M270.374603,235.846390 
	C264.520905,236.362534 258.948792,236.700623 252.920258,237.058929 
	C251.967133,235.296326 251.470428,233.513519 251.459106,231.365875 
	C254.581619,231.003220 257.218750,231.005371 259.855896,231.007507 
	C260.300934,232.004272 260.745972,233.001022 261.382812,234.427368 
	C262.084106,233.477921 262.542053,232.857910 263.727844,232.069855 
	C267.117065,231.965668 269.778503,232.029510 272.439911,232.093353 
	C271.845337,233.285004 271.250763,234.476669 270.374603,235.846390 
z"/>
<path fill="#279B63" opacity="1.000000" stroke="none" 
	d="
M235.726807,137.464844 
	C240.578690,137.316864 245.483932,137.527802 250.784485,137.909149 
	C248.797226,140.299377 246.685059,143.881287 243.968842,144.420502 
	C239.870560,145.234100 237.369064,141.515137 235.726807,137.464844 
z"/>
<path fill="#6BBC51" opacity="1.000000" stroke="none" 
	d="
M228.317627,105.362503 
	C231.464157,104.667114 234.568878,104.336334 238.074966,104.004578 
	C238.999496,106.397926 239.522659,108.792244 239.544678,111.593987 
	C235.916107,112.035797 232.788651,112.070190 229.661209,112.104591 
	C229.199417,109.978760 228.737625,107.852936 228.317627,105.362503 
z"/>
<path fill="#58B554" opacity="1.000000" stroke="none" 
	d="
M229.640381,112.525772 
	C232.788651,112.070190 235.916107,112.035797 239.502075,112.003540 
	C240.372879,114.070229 240.785187,116.134796 241.129395,118.598450 
	C238.024780,119.332298 234.988266,119.667053 231.520340,119.995491 
	C230.599152,117.641769 230.109360,115.294357 229.640381,112.525772 
z"/>
<path fill="#7AC053" opacity="1.000000" stroke="none" 
	d="
M192.118835,111.623810 
	C187.376389,112.325432 182.640182,112.661499 177.441391,112.996407 
	C177.956940,109.374016 179.874664,106.553185 183.872116,106.099998 
	C187.858307,105.648102 190.460587,107.797028 192.118835,111.623810 
z"/>
<path fill="#229E5E" opacity="1.000000" stroke="none" 
	d="
M200.004471,139.610413 
	C196.913910,139.676193 193.850937,139.345871 190.373138,139.007568 
	C189.509399,137.281845 189.060501,135.564056 189.012421,133.414215 
	C192.252655,132.323654 195.092087,131.665192 197.931519,131.006714 
	C198.631714,133.742569 199.331894,136.478424 200.004471,139.610413 
z"/>
<path fill="#6BBC51" opacity="1.000000" stroke="none" 
	d="
M209.195862,103.385864 
	C212.561829,102.669739 215.806229,102.330864 219.470657,101.981522 
	C219.679398,104.079414 219.468109,106.187767 218.684418,108.660355 
	C214.810425,109.352219 211.508804,109.679848 208.207184,110.007477 
	C208.496216,107.926025 208.785248,105.844559 209.195862,103.385864 
z"/>
<path fill="#358E8C" opacity="1.000000" stroke="none" 
	d="
M328.170837,104.324570 
	C331.720276,103.702873 335.288300,103.431419 339.147766,102.799301 
	C339.713104,103.053734 339.986938,103.668823 340.324402,104.624924 
	C340.961548,106.413628 341.535095,107.861305 341.658203,109.657654 
	C337.613037,110.424713 334.018341,110.843109 330.423676,111.261497 
	C329.678894,109.065933 328.934143,106.870377 328.170837,104.324570 
z"/>
<path fill="#96CC53" opacity="1.000000" stroke="none" 
	d="
M312.796570,213.729141 
	C310.317596,214.011765 307.978912,213.970352 305.146149,213.886475 
	C304.727570,213.194794 304.795929,212.544617 304.879669,211.896423 
	C305.820465,204.616821 306.052551,204.454041 314.141144,205.912643 
	C313.741852,208.396927 313.339355,210.901016 312.796570,213.729141 
z"/>
<path fill="#6BBC51" opacity="1.000000" stroke="none" 
	d="
M263.867493,119.687241 
	C259.151642,120.336037 254.383560,120.642807 249.155670,120.912819 
	C251.019638,118.549416 252.962158,115.163162 255.760757,114.156189 
	C259.514832,112.805428 261.968964,116.228333 263.867493,119.687241 
z"/>
<path fill="#3AA95E" opacity="1.000000" stroke="none" 
	d="
M197.975006,130.632629 
	C195.092087,131.665192 192.252655,132.323654 189.007843,133.026093 
	C188.070862,130.959625 187.539261,128.849197 187.027466,126.359406 
	C189.795334,125.324867 192.543396,124.669701 195.720947,124.031158 
	C196.773117,126.118042 197.395813,128.188309 197.975006,130.632629 
z"/>
<path fill="#229E5E" opacity="1.000000" stroke="none" 
	d="
M293.742523,237.023285 
	C293.679077,237.676453 293.661743,238.337952 293.545135,238.981491 
	C292.286407,245.927689 291.988129,246.104111 284.135925,244.405762 
	C284.678589,241.847366 285.222443,239.283264 286.315735,236.358124 
	C289.157593,236.339157 291.450073,236.681229 293.742523,237.023285 
z"/>
<path fill="#358E8C" opacity="1.000000" stroke="none" 
	d="
M90.550797,104.934227 
	C89.569092,107.859970 88.161407,110.710678 86.106430,113.816589 
	C83.258484,113.643791 81.057823,113.215790 78.857162,112.787788 
	C81.461205,105.747887 83.070686,104.615364 90.550797,104.934227 
z"/>
<path fill="#229E5E" opacity="1.000000" stroke="none" 
	d="
M214.022705,139.630020 
	C210.757782,139.971970 207.645294,139.947159 204.054153,139.879715 
	C203.875122,137.766418 204.174728,135.695770 205.164062,133.309296 
	C208.923233,132.999176 211.992691,133.004852 215.062134,133.010529 
	C214.766479,135.094772 214.470810,137.179031 214.022705,139.630020 
z"/>
<path fill="#96CC53" opacity="1.000000" stroke="none" 
	d="
M293.244446,213.081665 
	C291.994751,211.197220 291.151825,209.380981 290.308868,207.564728 
	C292.429474,206.710678 294.547028,205.268845 296.672028,205.257782 
	C297.689789,205.252457 298.721710,207.956696 299.747223,209.433777 
	C297.715210,210.672470 295.683197,211.911163 293.244446,213.081665 
z"/>
<path fill="#358E8C" opacity="1.000000" stroke="none" 
	d="
M347.843506,115.037560 
	C346.315491,111.919250 344.787476,108.800941 343.160767,105.353912 
	C349.456909,103.461266 352.808563,107.035660 354.881409,112.592712 
	C352.317932,113.657166 350.080719,114.347359 347.843506,115.037560 
z"/>
<path fill="#358E8C" opacity="1.000000" stroke="none" 
	d="
M92.126099,108.979721 
	C92.394615,107.877243 92.663132,106.774757 92.929878,105.329330 
	C93.343307,104.293304 93.758507,103.600220 94.406380,102.713242 
	C98.078964,103.335564 101.518867,104.151772 105.348488,105.312019 
	C105.113808,107.428757 104.489418,109.201454 103.482147,110.927017 
	C99.441544,110.246490 95.783821,109.613106 92.126099,108.979721 
z"/>
<path fill="#156670" opacity="1.000000" stroke="none" 
	d="
M112.083893,210.361633 
	C111.537491,211.207077 111.106743,212.107544 110.662354,212.114319 
	C108.360985,212.149460 105.977524,212.238358 103.810539,211.634430 
	C103.300270,211.492233 102.832573,208.025635 103.543526,207.350891 
	C104.910904,206.053131 107.135361,205.031219 109.003380,205.032822 
	C111.923637,205.035309 112.722214,207.306335 112.083893,210.361633 
z"/>
<path fill="#51B05A" opacity="1.000000" stroke="none" 
	d="
M206.480865,122.011093 
	C206.751511,119.844528 207.022141,117.677963 207.954620,115.231544 
	C211.768936,114.968323 214.921387,114.984955 218.073853,115.001579 
	C217.896637,116.780396 217.719421,118.559212 216.892288,120.664413 
	C212.988541,121.330894 209.734695,121.670990 206.480865,122.011093 
z"/>
<path fill="#3AA95E" opacity="1.000000" stroke="none" 
	d="
M206.347305,122.374741 
	C209.734695,121.670990 212.988541,121.330894 216.692245,120.989395 
	C216.940735,122.793182 216.739334,124.598373 215.881378,126.710075 
	C212.050049,127.334373 208.875305,127.652153 205.700562,127.969925 
	C205.871628,126.226082 206.042679,124.482231 206.347305,122.374741 
z"/>
<path fill="#7AC053" opacity="1.000000" stroke="none" 
	d="
M288.173401,224.015366 
	C288.837341,216.299240 288.947723,216.219315 297.607483,217.690323 
	C297.180847,219.911789 296.754181,222.133377 295.774200,224.502502 
	C292.871735,224.438477 290.522552,224.226913 288.173401,224.015366 
z"/>
<path fill="#32A662" opacity="1.000000" stroke="none" 
	d="
M205.512848,128.356049 
	C208.875305,127.652153 212.050049,127.334373 215.669098,127.028946 
	C215.899704,128.819519 215.685974,130.597733 215.267197,132.693237 
	C211.992691,133.004852 208.923233,132.999176 205.393173,132.991699 
	C205.063416,131.573975 205.194275,130.158066 205.512848,128.356049 
z"/>
<path fill="#0A616A" opacity="1.000000" stroke="none" 
	d="
M74.125954,138.060608 
	C65.419579,138.479721 65.372238,138.434204 66.120270,129.399994 
	C68.704277,128.981155 70.747963,129.006287 72.847237,129.452301 
	C73.310539,132.602310 73.718246,135.331467 74.125954,138.060608 
z"/>
<path fill="#0A616A" opacity="1.000000" stroke="none" 
	d="
M367.901917,129.009384 
	C367.958130,129.656952 368.053619,130.303864 368.064514,130.952194 
	C368.186615,138.200241 368.133575,138.249359 360.369965,137.698212 
	C360.397522,134.501770 360.845367,131.769516 361.704498,129.029800 
	C364.044495,129.018005 365.973206,129.013702 367.901917,129.009384 
z"/>
<path fill="#91CB4C" opacity="1.000000" stroke="none" 
	d="
M272.104218,217.006226 
	C273.107330,215.094437 274.110443,213.182648 275.828156,211.100281 
	C279.080200,211.363892 281.617615,211.798080 284.155060,212.232269 
	C282.980682,214.387573 281.806305,216.542862 280.226685,218.436218 
	C277.249023,217.784927 274.676636,217.395569 272.104218,217.006226 
z"/>
<path fill="#58B554" opacity="1.000000" stroke="none" 
	d="
M333.538147,228.890671 
	C332.906982,231.776794 332.275787,234.662933 331.210266,237.335510 
	C328.347015,236.668472 325.918060,236.214966 323.606720,235.392944 
	C324.270081,233.023499 324.815857,231.022598 325.799377,229.015366 
	C328.670776,228.969574 331.104462,228.930130 333.538147,228.890671 
z"/>
<path fill="#6BBC51" opacity="1.000000" stroke="none" 
	d="
M303.281860,221.363327 
	C306.995117,221.717438 310.564697,222.433411 314.257568,223.539322 
	C313.196503,224.954666 312.012146,225.980087 310.396851,227.004517 
	C307.394104,227.004623 304.822296,227.005722 302.250458,227.006821 
	C302.546387,225.246277 302.842285,223.485748 303.281860,221.363327 
z"/>
<path fill="#7CC04B" opacity="1.000000" stroke="none" 
	d="
M248.155121,218.270691 
	C250.736313,216.960373 253.284515,216.005981 256.192871,215.046158 
	C257.018066,217.096115 257.483032,219.151505 257.484436,221.601166 
	C254.386215,221.996964 251.751602,221.998489 249.117004,222.000031 
	C248.785385,220.875565 248.453751,219.751114 248.155121,218.270691 
z"/>
<path fill="#58B554" opacity="1.000000" stroke="none" 
	d="
M218.260620,114.668839 
	C214.921387,114.984955 211.768936,114.968323 208.135925,114.917755 
	C207.770660,113.523293 207.885941,112.162773 208.104202,110.404861 
	C211.508804,109.679848 214.810425,109.352219 218.519089,109.015259 
	C218.766556,110.782654 218.606964,112.559380 218.260620,114.668839 
z"/>
<path fill="#58B554" opacity="1.000000" stroke="none" 
	d="
M288.049927,224.387939 
	C290.522552,224.226913 292.871735,224.438477 295.575592,224.809265 
	C295.650940,226.741806 295.371582,228.515106 294.536316,230.648041 
	C291.650330,231.005539 289.320251,231.003433 286.990204,231.001312 
	C287.302277,228.921051 287.614349,226.840775 288.049927,224.387939 
z"/>
<path fill="#7AC053" opacity="1.000000" stroke="none" 
	d="
M271.873901,217.257568 
	C274.676636,217.395569 277.249023,217.784927 279.913452,218.549713 
	C279.485046,220.127182 278.964630,221.329239 277.739807,222.762756 
	C274.239166,222.957352 271.442871,222.920486 268.646606,222.883636 
	C269.645599,221.092056 270.644592,219.300491 271.873901,217.257568 
z"/>
<path fill="#459B9A" opacity="1.000000" stroke="none" 
	d="
M347.836456,115.411507 
	C350.080719,114.347359 352.317932,113.657166 354.972260,112.949982 
	C356.082031,115.075485 356.774658,117.217972 357.063538,119.604950 
	C354.033203,119.919052 351.406616,119.988663 348.780029,120.058273 
	C348.463165,118.634003 348.146301,117.209732 347.836456,115.411507 
z"/>
<path fill="#459B9A" opacity="1.000000" stroke="none" 
	d="
M78.597725,113.041229 
	C81.057823,113.215790 83.258484,113.643791 85.915268,114.117668 
	C86.061417,115.880318 85.751450,117.597084 84.874802,119.645874 
	C81.768539,120.324295 79.228943,120.670708 76.689354,121.017128 
	C77.238998,118.442978 77.788643,115.868820 78.597725,113.041229 
z"/>
<path fill="#328888" opacity="1.000000" stroke="none" 
	d="
M76.527466,121.330292 
	C79.228943,120.670708 81.768539,120.324295 84.707092,119.978073 
	C85.030960,121.740913 84.955864,123.503563 84.738525,125.685150 
	C82.079376,126.077087 79.562469,126.050095 76.574982,125.659798 
	C76.078400,124.534966 76.052399,123.773438 76.026398,123.011909 
	C76.139458,122.555763 76.252518,122.099609 76.527466,121.330292 
z"/>
<path fill="#A0D14F" opacity="1.000000" stroke="none" 
	d="
M284.427612,212.025787 
	C281.617615,211.798080 279.080200,211.363892 276.075623,210.887329 
	C277.272614,203.769592 282.802643,206.626068 288.269073,206.052338 
	C286.786652,208.447830 285.743439,210.133575 284.427612,212.025787 
z"/>
<path fill="#6ABC5B" opacity="1.000000" stroke="none" 
	d="
M333.648041,228.589996 
	C331.104462,228.930130 328.670776,228.969574 325.662292,228.690186 
	C324.317902,226.949860 323.548279,225.528381 322.778687,224.106888 
	C325.667694,223.731094 328.556671,223.355301 331.885345,222.948395 
	C332.802673,224.707962 333.280304,226.498657 333.648041,228.589996 
z"/>
<path fill="#45AC57" opacity="1.000000" stroke="none" 
	d="
M346.784851,237.862671 
	C344.288361,238.101730 341.627747,238.052200 338.568848,238.002991 
	C337.815643,236.267105 337.460693,234.530884 337.176086,232.410645 
	C339.753204,232.569244 342.259979,233.111862 344.999939,233.971024 
	C345.695679,235.383057 346.158173,236.478561 346.784851,237.862671 
z"/>
<path fill="#328888" opacity="1.000000" stroke="none" 
	d="
M348.759521,120.480263 
	C351.406616,119.988663 354.033203,119.919052 356.980896,119.940125 
	C357.509125,120.760582 357.716248,121.490364 357.926666,122.939926 
	C357.873352,124.126762 357.816803,124.593811 357.760254,125.060852 
	C355.218903,125.057159 352.677551,125.053459 349.715515,125.059708 
	C349.109528,123.680519 348.924255,122.291382 348.759521,120.480263 
z"/>
<path fill="#7AC053" opacity="1.000000" stroke="none" 
	d="
M343.494019,220.716156 
	C345.555023,221.405090 347.301178,222.243286 349.210358,223.495071 
	C348.324310,225.289307 347.275269,226.669937 346.226257,228.050598 
	C344.039856,227.689728 341.853485,227.328842 339.240662,226.947769 
	C340.269257,224.906860 341.724213,222.886139 343.494019,220.716156 
z"/>
<path fill="#3AA95E" opacity="1.000000" stroke="none" 
	d="
M286.819519,231.324341 
	C289.320251,231.003433 291.650330,231.005539 294.414429,231.014847 
	C294.565948,232.781097 294.283447,234.540146 293.871735,236.661255 
	C291.450073,236.681229 289.157593,236.339157 286.461304,236.001923 
	C286.254639,234.553619 286.451752,233.100494 286.819519,231.324341 
z"/>
<path fill="#6BBC51" opacity="1.000000" stroke="none" 
	d="
M249.086609,222.367981 
	C251.751602,221.998489 254.386215,221.996964 257.460205,221.995667 
	C258.260742,223.420258 258.621826,224.844650 258.509003,226.632080 
	C255.407410,227.003418 252.779739,227.011688 250.152100,227.019958 
	C249.786804,225.591949 249.421509,224.163940 249.086609,222.367981 
z"/>
<path fill="#51B05A" opacity="1.000000" stroke="none" 
	d="
M272.673218,231.864319 
	C269.778503,232.029510 267.117065,231.965668 263.955872,231.846497 
	C264.053833,230.628021 264.651642,229.464890 265.939331,228.122406 
	C269.565979,227.660828 272.502747,227.378586 275.439514,227.096344 
	C274.595154,228.609329 273.750824,230.122299 272.673218,231.864319 
z"/>
<path fill="#6ABC5B" opacity="1.000000" stroke="none" 
	d="
M275.672791,226.906601 
	C272.502747,227.378586 269.565979,227.660828 266.190186,227.913239 
	C266.552887,226.352600 267.354645,224.821808 268.401489,223.087311 
	C271.442871,222.920486 274.239166,222.957352 277.491821,222.990005 
	C277.267487,224.229492 276.586792,225.473175 275.672791,226.906601 
z"/>
<path fill="#45AC57" opacity="1.000000" stroke="none" 
	d="
M310.244629,236.912781 
	C307.333954,236.916336 304.423279,236.919891 301.019379,236.878784 
	C300.721436,235.486282 300.916779,234.138443 301.662598,232.399963 
	C304.464264,232.004868 306.715515,232.000381 309.117676,232.329559 
	C309.593933,234.079742 309.919281,235.496262 310.244629,236.912781 
z"/>
<path fill="#237A7E" opacity="1.000000" stroke="none" 
	d="
M72.791641,129.031418 
	C70.747963,129.006287 68.704277,128.981155 66.218437,128.955200 
	C64.541817,121.917809 69.806107,124.259468 73.599808,124.265152 
	C73.625656,126.137428 73.208649,127.584427 72.791641,129.031418 
z"/>
<path fill="#CBDDDE" opacity="1.000000" stroke="none" 
	d="
M357.856934,125.511101 
	C357.816803,124.593811 357.873352,124.126762 358.009338,123.314331 
	C358.624939,123.143272 359.161163,123.317596 359.904877,124.104546 
	C360.505981,126.157196 360.899597,127.597237 361.293213,129.037277 
	C360.845367,131.769516 360.397522,134.501770 359.923584,137.641663 
	C359.475891,138.042389 359.054321,138.035446 358.315674,138.014038 
	C357.983643,133.986832 357.968628,129.974091 357.856934,125.511101 
z"/>
<path fill="#58B554" opacity="1.000000" stroke="none" 
	d="
M308.966736,231.995911 
	C306.715515,232.000381 304.464264,232.004868 301.797089,232.013504 
	C301.593323,230.580643 301.805542,229.143616 302.134094,227.356705 
	C304.822296,227.005722 307.394104,227.004623 310.306854,227.335403 
	C310.087433,229.110168 309.527100,230.553040 308.966736,231.995911 
z"/>
<path fill="#7AC053" opacity="1.000000" stroke="none" 
	d="
M360.067749,223.983795 
	C362.206909,223.636841 364.346069,223.289886 366.911560,222.911285 
	C367.829651,224.424774 368.321442,225.969910 368.692505,227.800583 
	C366.400238,228.060013 364.228699,228.033920 361.554932,227.663452 
	C360.724365,226.207306 360.396057,225.095535 360.067749,223.983795 
z"/>
<path fill="#CBDDDE" opacity="1.000000" stroke="none" 
	d="
M72.847237,129.452301 
	C73.208649,127.584427 73.625656,126.137428 74.029007,124.313644 
	C74.492218,123.650612 74.969070,123.364365 75.736160,123.045013 
	C76.052399,123.773438 76.078400,124.534966 76.150589,125.676163 
	C76.137268,129.745193 76.077751,133.434540 75.941345,137.581085 
	C75.478027,138.063141 75.091591,138.088028 74.415558,138.086761 
	C73.718246,135.331467 73.310539,132.602310 72.847237,129.452301 
z"/>
<path fill="#3AA95E" opacity="1.000000" stroke="none" 
	d="
M323.489136,235.761475 
	C325.918060,236.214966 328.347015,236.668472 330.876221,237.508209 
	C330.223663,238.923981 329.470795,239.953506 328.395020,241.067413 
	C325.692993,240.345047 323.313873,239.538300 320.749603,238.386749 
	C321.539337,237.281799 322.514252,236.521637 323.489136,235.761475 
z"/>
<path fill="#45AC57" opacity="1.000000" stroke="none" 
	d="
M250.125015,227.363312 
	C252.779739,227.011688 255.407410,227.003418 258.474335,227.000488 
	C259.247101,228.109070 259.580627,229.212341 259.885010,230.661560 
	C257.218750,231.005371 254.581619,231.003220 251.503113,231.003036 
	C250.740479,229.905548 250.419205,228.806107 250.125015,227.363312 
z"/>
<path fill="#1A7479" opacity="1.000000" stroke="none" 
	d="
M361.704498,129.029800 
	C360.899597,127.597237 360.505981,126.157196 360.053955,124.348969 
	C363.032074,124.706444 368.345642,121.029945 367.986359,128.583511 
	C365.973206,129.013702 364.044495,129.018005 361.704498,129.029800 
z"/>
<path fill="#126B72" opacity="1.000000" stroke="none" 
	d="
M297.720642,87.081802 
	C297.808502,87.863853 297.613770,88.590797 297.419037,89.317734 
	C296.965759,88.930511 296.512451,88.543289 295.952057,87.854828 
	C296.375977,87.377937 296.906982,87.202309 297.720642,87.081802 
z"/>
<path fill="#91CB4C" opacity="1.000000" stroke="none" 
	d="
M220.250198,95.850845 
	C220.194794,95.424782 220.375427,94.834213 220.750839,94.125732 
	C220.792496,94.567329 220.639359,95.126831 220.250198,95.850845 
z"/>
<path fill="#E4EDEE" opacity="1.000000" stroke="none" 
	d="
M125.175934,100.436996 
	C128.116089,96.844452 131.025864,93.613304 134.094299,90.692352 
	C131.964874,95.694656 129.676788,100.386765 127.191963,105.799316 
	C126.282845,111.676262 125.570442,116.832748 124.858032,121.989243 
	C123.004227,138.075897 124.698647,153.610611 132.050903,168.635925 
	C130.773407,168.278671 129.004059,167.866531 128.306824,166.771637 
	C121.920464,156.742920 120.830650,145.344833 120.219940,133.866272 
	C120.079109,131.219223 120.206711,128.557861 120.257996,125.100883 
	C120.431908,122.884041 120.558617,121.469414 120.793152,119.642273 
	C121.236954,116.480827 121.572922,113.731873 121.994385,110.620605 
	C122.444389,108.875374 122.808907,107.492455 123.173424,106.109543 
	C123.830803,104.339157 124.488174,102.568779 125.175934,100.436996 
z"/>
<path fill="#126B72" opacity="1.000000" stroke="none" 
	d="
M125.296661,121.992462 
	C125.570442,116.832748 126.282845,111.676262 127.177963,106.205521 
	C132.909912,106.752312 135.338760,109.943077 134.997406,115.923599 
	C134.726471,120.670120 132.712234,121.990623 125.296661,121.992462 
z"/>
<path fill="#E4EDEE" opacity="1.000000" stroke="none" 
	d="
M133.149139,169.747070 
	C132.670746,169.808105 132.029480,169.621246 131.691406,169.190887 
	C132.325165,169.131332 132.655731,169.315262 133.149139,169.747070 
z"/>
<path fill="#E2ECED" opacity="1.000000" stroke="none" 
	d="
M103.865028,110.974152 
	C104.489418,109.201454 105.113808,107.428757 105.762100,105.305954 
	C106.960144,102.953300 108.134293,100.950760 109.713943,99.236008 
	C110.201492,99.700333 110.283531,99.876877 110.365562,100.053413 
	C110.342155,100.472656 110.318756,100.891891 110.118202,101.964531 
	C109.430298,104.397903 108.919548,106.177879 108.237122,108.276840 
	C107.428162,113.407356 106.790894,118.218872 106.080444,123.439209 
	C105.989090,125.226845 105.970932,126.605667 105.952766,127.984497 
	C107.048653,139.580627 108.144547,151.176773 109.241280,162.781876 
	C102.734818,152.000137 101.933380,139.809845 101.920227,126.685028 
	C102.034210,123.936859 102.098167,121.954147 102.342239,119.637131 
	C102.969910,116.526604 103.417465,113.750374 103.865028,110.974152 
z"/>
<path fill="#328888" opacity="1.000000" stroke="none" 
	d="
M106.369614,127.977783 
	C105.970932,126.605667 105.989090,125.226845 106.473854,123.426010 
	C111.522079,122.020935 116.103699,121.037857 120.685326,120.054779 
	C120.558617,121.469414 120.431908,122.884041 120.187744,124.637344 
	C115.642342,125.974358 111.214394,126.972710 106.369614,127.977783 
z"/>
<path fill="#328888" opacity="1.000000" stroke="none" 
	d="
M102.162117,119.971428 
	C102.098167,121.954147 102.034210,123.936859 101.867661,126.249847 
	C97.856110,127.059624 93.947144,127.539124 89.606155,128.033417 
	C89.168060,126.657120 89.161987,125.266045 89.630325,123.452942 
	C94.123856,122.011086 98.142982,120.991257 102.162117,119.971428 
z"/>
<path fill="#E2ECED" opacity="1.000000" stroke="none" 
	d="
M307.903198,97.737869 
	C308.926575,100.155136 309.713348,102.318390 310.708008,105.125732 
	C311.338715,107.170815 311.761505,108.571808 312.166748,110.362076 
	C312.747589,113.831192 313.345947,116.911018 313.905823,120.425522 
	C313.989441,122.597191 314.111603,124.334198 314.233734,126.071198 
	C313.498901,134.789032 313.514832,143.660080 311.777344,152.173294 
	C310.523407,158.317322 306.937103,163.985367 304.206421,170.179611 
	C303.115295,170.657257 302.208740,170.820999 300.346008,171.157455 
	C309.051178,157.797455 310.425385,143.528214 310.114014,128.458923 
	C310.006378,126.286163 309.994995,124.572487 309.952332,122.030899 
	C309.121277,116.773819 308.321503,112.344635 307.521729,107.915459 
	C305.681427,102.693474 303.841125,97.471489 301.963043,92.142311 
	C305.279724,91.695526 305.903656,95.328918 307.903198,97.737869 
z"/>
<path fill="#1A7479" opacity="1.000000" stroke="none" 
	d="
M307.129120,107.951981 
	C308.321503,112.344635 309.121277,116.773819 309.864014,121.610199 
	C306.299042,121.899139 302.047058,123.077805 301.172852,117.822693 
	C300.399475,113.173828 302.237823,109.770714 307.129120,107.951981 
z"/>
<path fill="#126B72" opacity="1.000000" stroke="none" 
	d="
M299.397888,88.722122 
	C299.558533,88.849312 299.581818,89.069427 299.605072,89.289551 
	C299.490234,89.131378 299.375397,88.973213 299.397888,88.722122 
z"/>
<path fill="#358E8C" opacity="1.000000" stroke="none" 
	d="
M314.630737,126.050201 
	C314.111603,124.334198 313.989441,122.597191 314.336426,120.427078 
	C319.171570,120.334587 323.537598,120.675217 327.903595,121.015839 
	C328.189087,123.118927 328.474579,125.222023 328.680115,127.709686 
	C324.076019,127.405914 319.551880,126.717560 314.630737,126.050201 
z"/>
<path fill="#E2ECED" opacity="1.000000" stroke="none" 
	d="
M232.475372,227.182678 
	C227.770111,228.149353 223.075790,228.732925 217.744370,229.395676 
	C218.904755,224.236450 221.749390,222.483841 225.561432,222.073700 
	C229.090469,221.694000 231.681366,223.022919 232.475372,227.182678 
z"/>
<path fill="#328888" opacity="1.000000" stroke="none" 
	d="
M344.769196,124.041466 
	C344.853790,125.107704 344.938385,126.173950 344.958221,127.637138 
	C341.045227,127.715340 337.196991,127.396584 332.967957,127.104500 
	C332.454437,126.044312 332.321747,124.957458 332.675293,123.448746 
	C337.030762,123.365089 340.899963,123.703278 344.769196,124.041466 
z"/>
<path fill="#459B9A" opacity="1.000000" stroke="none" 
	d="
M327.955353,120.598099 
	C323.537598,120.675217 319.171570,120.334587 314.374939,119.992409 
	C313.345947,116.911018 312.747589,113.831192 312.563293,110.308838 
	C317.390686,109.889954 321.803955,109.913582 326.217224,109.937210 
	C326.813843,113.351593 327.410461,116.765976 327.955353,120.598099 
z"/>
<path fill="#459B9A" opacity="1.000000" stroke="none" 
	d="
M344.814880,123.635788 
	C340.899963,123.703278 337.030762,123.365089 332.735626,123.038757 
	C331.724487,119.395752 331.139282,115.740883 330.488861,111.673752 
	C334.018341,110.843109 337.613037,110.424713 341.658752,110.009499 
	C343.026703,114.418495 343.943634,118.824303 344.814880,123.635788 
z"/>
<path fill="#358E8C" opacity="1.000000" stroke="none" 
	d="
M326.186523,109.547226 
	C321.803955,109.913582 317.390686,109.889954 312.580872,109.919563 
	C311.761505,108.571808 311.338715,107.170815 310.916107,105.402557 
	C314.911987,104.007278 318.907684,102.979248 323.324280,101.944260 
	C324.548737,104.343941 325.352295,106.750595 326.186523,109.547226 
z"/>
<path fill="#358E8C" opacity="1.000000" stroke="none" 
	d="
M108.408798,107.957848 
	C108.919548,106.177879 109.430298,104.397903 110.150375,102.278023 
	C114.881676,101.743889 119.301643,101.871208 122.845230,105.952393 
	C122.808907,107.492455 122.444389,108.875374 121.622803,110.582077 
	C116.913429,109.923195 112.661110,108.940521 108.408798,107.957848 
z"/>
<path fill="#358E8C" opacity="1.000000" stroke="none" 
	d="
M110.630989,99.998199 
	C110.283531,99.876877 110.201492,99.700333 110.069107,99.236176 
	C110.503868,98.809738 110.988976,98.670906 111.474083,98.532074 
	C111.281525,99.002373 111.088974,99.472679 110.630989,99.998199 
z"/>
<path fill="#459B9A" opacity="1.000000" stroke="none" 
	d="
M102.342239,119.637131 
	C98.142982,120.991257 94.123856,122.011086 89.720413,123.044556 
	C90.145523,118.600723 90.954933,114.143257 91.945221,109.332748 
	C95.783821,109.613106 99.441544,110.246490 103.482147,110.927017 
	C103.417465,113.750374 102.969910,116.526604 102.342239,119.637131 
z"/>
<path fill="#F6FAF6" opacity="1.000000" stroke="none" 
	d="
M323.606720,235.392944 
	C322.514252,236.521637 321.539337,237.281799 320.321106,238.248627 
	C317.003815,238.076294 313.929810,237.697281 310.550232,237.115540 
	C309.919281,235.496262 309.593933,234.079742 309.117676,232.329559 
	C309.527100,230.553040 310.087433,229.110168 310.737793,227.336395 
	C312.012146,225.980087 313.196503,224.954666 314.661987,223.729523 
	C317.312408,223.663513 319.681610,223.797256 322.414734,224.018951 
	C323.548279,225.528381 324.317902,226.949860 325.224579,228.696518 
	C324.815857,231.022598 324.270081,233.023499 323.606720,235.392944 
z"/>
<path fill="#F6FAF6" opacity="1.000000" stroke="none" 
	d="
M359.738708,223.820923 
	C360.396057,225.095535 360.724365,226.207306 361.101746,227.667465 
	C356.368896,228.206650 351.586975,228.397446 346.515656,228.319412 
	C347.275269,226.669937 348.324310,225.289307 349.609985,223.666229 
	C353.034302,223.501892 356.222015,223.579971 359.738708,223.820923 
z"/>
<path fill="#459B9A" opacity="1.000000" stroke="none" 
	d="
M108.237122,108.276840 
	C112.661110,108.940521 116.913429,109.923195 121.537323,110.944397 
	C121.572922,113.731873 121.236954,116.480827 120.793152,119.642273 
	C116.103699,121.037857 111.522079,122.020935 106.547043,123.017197 
	C106.790894,118.218872 107.428162,113.407356 108.237122,108.276840 
z"/>
</svg>